<svg id="レイヤー_5" data-name="レイヤー 5" xmlns="http://www.w3.org/2000/svg" viewBox="0 0 451.62 447.67"><defs><style>.cls-1{fill:none;}.cls-2{fill:#8ff18b;}.cls-3{fill:#00ae78;}</style></defs><title>corresponding-area</title><path class="cls-1" d="M183.78,164.76a51.3,51.3,0,1,0,51.31-51.3A51.15,51.15,0,0,0,183.78,164.76Z"/><path class="cls-2" d="M196,197.93A51.3,51.3,0,0,1,271,128.14l69.77-64.9h0A149.25,149.25,0,0,0,80,162.46c0,7.26.51,20.06,1.51,27,0,0,1.84,27.51,32,85.07h0Z"/><path class="cls-3" d="M340.77,63.24h0L271,128.14A51.3,51.3,0,1,1,196,197.93l-82.39,76.63h0c21.32,40.66,56.76,96.32,115.72,167.9C371.67,269.58,377,189.49,377,189.49a241,241,0,0,0,1.52-27A148.7,148.7,0,0,0,340.77,63.24Z"/></svg>