<svg id="レイヤー_6" data-name="レイヤー 6" xmlns="http://www.w3.org/2000/svg" viewBox="0 0 317.4 420.94"><defs><style>.cls-1{fill:#fff;}.cls-2{fill:#8ff18b;}.cls-3{fill:#00ae78;}</style></defs><title>estimate</title><rect class="cls-1" x="12.84" y="12.01" width="291.67" height="395.43"/><rect class="cls-2" x="55.85" y="67.57" width="205.64" height="22.72"/><rect class="cls-2" x="55.85" y="131.01" width="205.64" height="22.72"/><rect class="cls-2" x="55.85" y="194.53" width="205.64" height="22.72"/><rect class="cls-2" x="55.85" y="258.05" width="98.63" height="22.72"/><rect class="cls-2" x="55.85" y="321.57" width="98.63" height="22.72"/><path class="cls-3" d="M225.18,373.2V349H194.72V338.59h30.46V327.93H194.72v-11h25l-29.74-53h14.58l21.31,38.47a104.42,104.42,0,0,1,5.55,11.49q1.6-3.88,6.06-12.16l20-37.8h15.62l-29.59,53h24.94v11h-30.1v10.66h30.1V349h-30.1V373.2Z"/></svg>