<svg id="レイヤー_8" data-name="レイヤー 8" xmlns="http://www.w3.org/2000/svg" viewBox="0 0 451.62 368.78"><defs><style>.cls-1{fill:#8ff18b;}.cls-2{fill:#00ae78;}.cls-3{fill:#fff;}</style></defs><title>inquiry</title><path class="cls-1" d="M10.27,101.32V318.05a39.11,39.11,0,0,0,39.12,39.11H398.68a39.12,39.12,0,0,0,39.12-39.11V101.32L224.53,208.43Z"/><path class="cls-2" d="M437.8,60.19V53.45a39.12,39.12,0,0,0-39.12-39.12H49.39A39.11,39.11,0,0,0,10.27,53.45v6.74L224.53,164.24Z"/><polygon class="cls-3" points="437.8 60.19 224.53 164.24 10.27 60.19 10.27 101.32 10.27 101.32 224.53 208.44 437.8 101.32 437.8 101.32 437.8 60.19"/></svg>