<svg width="15" height="16" viewBox="0 0 15 16" fill="none" xmlns="http://www.w3.org/2000/svg">
<g clip-path="url(#clip0)">
<path d="M7.49975 0.0546875C4.24961 0.0546875 1.61523 2.71741 1.61523 6.00217C1.61523 8.02904 2.63031 9.8029 4.15088 10.8928C5.53826 11.8875 5.84456 12.1249 6.33238 13.0662C6.71834 13.8107 7.34433 15.1175 7.34433 15.1175C7.37374 15.1769 7.43374 15.2146 7.49978 15.2146C7.56552 15.2146 7.62604 15.1769 7.65543 15.1175C7.65543 15.1175 8.28145 13.8107 8.66737 13.0662C9.15493 12.1249 9.46149 11.8875 10.8486 10.8928C12.3694 9.8029 13.3845 8.02904 13.3845 6.00217C13.3845 2.71741 10.7496 0.0546875 7.49975 0.0546875ZM7.49975 9.98778C5.32208 9.98778 3.55642 8.20329 3.55642 6.00214C3.55642 3.80102 5.32208 2.01653 7.49975 2.01653C9.67765 2.01653 11.4433 3.80102 11.4433 6.00214C11.4433 8.20329 9.67765 9.98778 7.49975 9.98778Z" fill="#00AE78"/>
</g>
<defs>
<clipPath id="clip0">
<rect y="0.0546875" width="15" height="15.1599" fill="white"/>
</clipPath>
</defs>
</svg>
