<?xml version="1.0" encoding="utf-8"?>
<!-- Generator: Adobe Illustrator 24.1.0, SVG Export Plug-In . SVG Version: 6.00 Build 0)  -->
<svg version="1.1" id="_x31_0" xmlns="http://www.w3.org/2000/svg" xmlns:xlink="http://www.w3.org/1999/xlink" x="0px" y="0px"
	 viewBox="0 0 471 282.9" style="enable-background:new 0 0 471 282.9;" xml:space="preserve">
<style type="text/css">
	.st0{fill:#00AE78;}
	.st1{fill:#8FF18B;}
</style>
<g>
	<path class="st0" d="M192.9,211.6c2.2-6.5,3.8-13.7,4.8-21.5c1-7.5,1.7-15.8,1.9-24.7c0.3-8.9,0.3-18.5,0.3-29.2
		c0-12.5-0.2-23.9-0.5-33.8c-0.3-10.1-1.4-19.7-3.3-28.3c-1.7-8.6-4.5-16.8-8.1-24.2c-3.8-7.4-9.1-14.6-16-21.5
		c-9.1-9.1-19.6-16.1-31.1-21.1c-11.7-4.8-25.6-7.4-41-7.4c-15.6,0-29.4,2.6-41,7.4c-11.7,5-22.1,12-31.6,21.1
		c-6.9,6.9-12.2,14.1-15.8,21.5c-3.8,7.4-6.5,15.6-8.1,24.2c-1.7,8.6-2.6,18-3.1,28.3c-0.3,10-0.5,21.3-0.5,33.8
		c0,12.5,0.2,23.9,0.5,34C1,180.4,1.9,190,3.6,198.4c1.6,8.7,4.3,17,8.1,24.2c3.6,7.4,8.9,14.6,15.8,21.6
		c9.4,8.9,19.9,16.1,31.6,20.9c11.7,5,25.4,7.6,41,7.6c10.8,0,20.8-1.4,29.7-4c8.1-2.2,15.4-5.3,22.3-9.3l24,23.3l31.6-31.6
		l-22.8-22.8C188.1,223,190.9,217.3,192.9,211.6z M121.2,169.6L121.2,169.6l-0.2-0.2l-26.8,27.1l18.8,18.7l3.8,3.8
		c-4.8,3.1-10.4,4.6-16.8,4.6c-7.2,0-13.4-1.2-18.9-4c-5.7-2.7-10.3-6.2-14.2-10.3c-2.4-2.7-4.5-5.7-6-8.9
		c-1.6-3.4-2.9-7.7-3.9-12.9c-0.9-5.3-1.6-12-1.9-20.2c-0.3-8.2-0.7-18.5-0.7-31.1c0-12.4,0.4-22.8,0.7-30.9
		c0.3-8.3,1-15.1,1.9-20.4c1-5.5,2.4-9.8,3.9-13c1.5-3.3,3.6-6.3,6-9.1c3.9-4.1,8.6-7.4,14.2-10c5.5-2.6,11.7-3.9,18.9-3.9
		c7,0,13.4,1.4,18.9,3.9c5.5,2.6,10.1,5.8,13.7,10c2.4,2.8,4.5,5.8,6,9.1c1.7,3.3,2.9,7.6,4,13c1,5.3,1.7,12.2,2.2,20.4
		c0.5,8.1,0.7,18.5,0.7,30.9c0,13.2-0.3,24-0.9,32.1c-0.6,6.9-1.6,12.7-3.1,17.7c-0.3,0.9-0.5,2.1-0.9,2.9l-19.2-19.2L121.2,169.6z"
		/>
	<path class="st1" d="M376.2,21h-41.9l-69.7,181.9L239.5,268h0.1l-0.1,0.3h56.5l18.6-51.9H396l18.4,51.9H471L376.2,21z M340.7,175.2
		l-15-0.1l29.5-80.3l22.1,59.7l7.5,20.7H340.7z"/>
</g>
</svg>
