<?xml version="1.0" encoding="utf-8"?>
<!-- Generator: Adobe Illustrator 24.0.3, SVG Export Plug-In . SVG Version: 6.00 Build 0)  -->
<svg version="1.1" id="contents" xmlns="http://www.w3.org/2000/svg" xmlns:xlink="http://www.w3.org/1999/xlink" x="0px" y="0px"
	 viewBox="0 0 402 550" style="enable-background:new 0 0 402 550;" xml:space="preserve">
<style type="text/css">
	.st0{fill:#FFFFFF;}
	.st1{fill:#00AE78;}
	.st2{fill:#8FF18B;}
</style>
<title>estimate</title>
<g>
	<path class="st0" d="M329,75.4h16.5c8.4,0,15.2,6.8,15.3,15.3v403.1c0,8.4-6.8,15.3-15.3,15.3H56.4c-8.4,0-15.2-6.8-15.3-15.3V90.6
		c0-8.4,6.8-15.2,15.3-15.3L329,75.4z"/>
	<path class="st1" d="M383.8,34.3h-47.7l-6.9,40.2c0,0.3-0.1,0.6-0.2,0.9h16.5c8.4,0,15.2,6.8,15.3,15.3v403.1
		c0,8.4-6.8,15.3-15.3,15.3H56.3c-8.4,0-15.2-6.8-15.3-15.3V90.6c0-8.4,6.8-15.2,15.3-15.3h16.5l-0.2-0.9l-6.9-40.2H18.1
		C8.1,34.3,0,42.4,0,52.4v479.5c0,10,8.1,18.1,18.1,18.1h365.7c10,0,18.1-8.1,18.1-18.1V52.4C401.9,42.4,393.8,34.3,383.8,34.3z"/>
	<path class="st2" d="M306,7.2H95.9c-5.3-0.2-9.8,3.9-10,9.2c0,0.8,0,1.6,0.2,2.4L95,70.7c1.3,6.6,7,11.4,13.7,11.6h184.5
		c6.7-0.2,12.4-5,13.7-11.6l8.9-51.9c1.1-5.2-2.2-10.3-7.4-11.4C307.6,7.2,306.8,7.1,306,7.2z"/>
	<rect x="185" y="155.3" class="st2" width="142.6" height="25.7"/>
	<polygon class="st1" points="74.3,168.6 93.5,149.4 111.9,167.8 150.2,130.1 169.4,149.3 111.8,206.2 	"/>
	<rect x="185" y="279.3" class="st2" width="142.6" height="25.7"/>
	<polygon class="st1" points="74.3,292.6 93.5,273.4 111.9,291.8 150.2,254.2 169.4,273.3 111.8,330.2 	"/>
	<rect x="185" y="403.3" class="st2" width="142.6" height="25.7"/>
	<polygon class="st1" points="74.3,416.6 93.5,397.4 111.9,415.8 150.2,378.2 169.4,397.4 111.8,454.2 	"/>
	<path class="st1" d="M741.6,236.6"/>
</g>
</svg>
