<?xml version="1.0" encoding="utf-8"?>
<!-- Generator: Adobe Illustrator 24.1.0, SVG Export Plug-In . SVG Version: 6.00 Build 0)  -->
<svg version="1.1" id="_x32_" xmlns="http://www.w3.org/2000/svg" xmlns:xlink="http://www.w3.org/1999/xlink" x="0px" y="0px"
	 viewBox="0 0 512 512" style="enable-background:new 0 0 512 512;" xml:space="preserve">
<style type="text/css">
	.st0{fill:#FFFFFF;}
	.st1{fill:#8FF18B;}
	.st2{fill:#00AE78;}
</style>
<circle class="st0" cx="267.5" cy="255.9" r="185.7"/>
<g>
	<path class="st1" d="M184.5,220.6l51,39.4c2,15.9,15.3,28.2,31.7,28.2c17.8,0,32.1-14.4,32.1-32.1c0-0.7-0.2-1.3-0.2-2l74.8-88.4
		c5.2-5.9,5.3-14.3,0.2-18.8c-5.1-4.5-13.4-3.4-18.6,2.4L282,227.6c-4.5-2.3-9.4-3.8-14.8-3.8c-5.7,0-11.1,1.6-15.7,4.3l-48-33.4
		c-6.2-4.6-15.5-2.4-20.7,4.7C177.5,206.5,178.3,216,184.5,220.6z"/>
	<path class="st2" d="M440.3,82.9c-44.2-44.3-105.6-71.7-173.1-71.7v59.3c51.3,0,97.5,20.7,131.1,54.3s54.3,79.8,54.3,131.1
		s-20.7,97.5-54.3,131.1c-33.7,33.6-79.8,54.3-131.1,54.3s-97.5-20.7-131.1-54.3s-54.3-79.8-54.3-131.1c0-16.8,2.3-33,6.5-48.4
		l24,15c3.2,2,7.1,2.4,10.2,1.1c3.2-1.3,5.3-4.2,5.5-7.6l10.4-135.6c0.3-3.9-1.9-7.8-5.5-10.1c-3.7-2.2-8.1-2.4-11.5-0.5L4.4,139
		c-3,1.7-4.6,4.9-4.3,8.3c0.2,3.5,2.3,6.7,5.5,8.7l30.7,19.1c-8.9,25.4-13.7,52.6-13.7,80.9c0,67.5,27.4,128.9,71.7,173.1
		c44.2,44.2,105.6,71.7,173.1,71.7s128.9-27.4,173.1-71.7C484.6,384.9,512,323.5,512,256S484.6,127.1,440.3,82.9z"/>
</g>
</svg>
