<?xml version="1.0" encoding="utf-8"?>
<!-- Generator: Adobe Illustrator 24.0.3, SVG Export Plug-In . SVG Version: 6.00 Build 0)  -->
<svg version="1.1" id="contents" xmlns="http://www.w3.org/2000/svg" xmlns:xlink="http://www.w3.org/1999/xlink" x="0px" y="0px"
	 viewBox="0 0 593.8 608.3" style="enable-background:new 0 0 593.8 608.3;" xml:space="preserve">
<style type="text/css">
	.st0{fill:#00AE78;}
	.st1{fill:#8FF18B;}
</style>
<title>phone</title>
<path class="st0" d="M448.8,592.3c-30.3,0-62.7-8.8-96.3-26.2c-62.1-32.2-105.5-57.4-183.3-135.2S66.2,309.6,34,247.5
	C-23.2,137.1,28.2,72.7,45.3,55.6l19-19c9.4-9.3,20.2-14.3,31.3-14.3c12.1,0,23.6,5.8,33.3,16.6c17.8,19.9,53.2,72.6,66.6,94.7
	c14.7,24.2,11.1,54-9,74.1l-36.9,36.9c26.1,45.4,53.6,81.6,88.9,116.9s71.5,62.8,116.9,88.8l36.9-36.9c11.2-11.5,26.6-17.9,42.6-18
	c11.1,0.1,22,3.2,31.5,9c22.1,13.4,74.8,48.9,94.7,66.6c10.5,9.4,16.3,20.6,16.6,32.3c0.3,11.5-4.6,22.7-14.3,32.3l-18.8,18.8
	C533.1,565.9,501.2,592.3,448.8,592.3L448.8,592.3z"/>
<path class="st1" d="M525.5,339.5c-10.9,0-19.7-8.9-19.7-19.8c0-2.6,0.5-5.2,1.6-7.6c8.7-20.6,13.2-42.8,13.2-65.3
	c0-92.5-75.2-167.7-167.7-167.7c-18.9,0-37.7,3.2-55.5,9.4c-10.3,3.6-21.5-1.8-25.2-12.1s1.8-21.5,12.1-25.2
	c108-37.9,226.3,19,264.1,127.1c17,48.6,15.4,101.7-4.6,149.1C540.6,334.7,533.4,339.5,525.5,339.5z"/>
<path class="st1" d="M454,317.8c-10.9,0-19.7-8.8-19.7-19.7c0-2.6,0.5-5.2,1.6-7.7c20.7-49.2-2.4-105.9-51.6-126.6
	c-22.1-9.3-46.8-10.1-69.4-2.2c-10.3,3.4-21.5-2.2-24.9-12.5c-3.3-10.1,1.9-21,11.9-24.7c14.5-5.1,29.7-7.7,45.1-7.6
	c75,0,136.1,61,136.1,136.1c0,18.2-3.6,36.2-10.7,53C469.1,313,461.9,317.8,454,317.8L454,317.8z"/>
</svg>
