<svg id="レイヤー_1" data-name="レイヤー 1" xmlns="http://www.w3.org/2000/svg" viewBox="0 0 615.6 613.03"><defs><style>.cls-1{fill:#8ff18b;}.cls-2{fill:#00ae78;}</style></defs><path class="cls-1" d="M211.6.53c-12.9,1.6-24.8,9.6-34.4,23.1-4.8,6.7-12.7,20.2-51.6,87.5-19.6,34-25.8,45.6-24.8,46.2.7.4,28.7,17.9,62.3,38.8,47.2,29.4,61.2,37.8,62.1,36.8,1.1-1.1,59.3-101.7,77.8-134.4,4.5-7.8,8.4-14.1,8.8-14s13.9,22.9,29.9,50.6c21.7,37.7,28.7,50.6,27.7,51.2-.7.4-10.9,6.4-22.7,13.1s-21.2,12.8-21,13.3c.5,1.1-5.9,1.8,69.2-7.5,43.6-5.4,63.3-8.2,64.2-9.1,4.4-4.7,91.5-112.2,91.5-113,0-.5-.2-.9-.4-.9s-10.6,5.9-23.1,13.2c-21.4,12.3-22.9,13-24.1,11.3-.8-1-12.5-21.2-26.1-44.9-28-48.6-29.9-51.1-43-57.4L426.1.73,393.6.53C303.6-.18,217.3-.18,211.6.53Z"/><path class="cls-2" d="M467.4,221.63c-35,18.7-63.9,34.4-64.3,34.7-.4.5,70.6,125,83.7,146.6l2,3.3H371.5l.1-26.2c.1-14.5-.2-26.4-.7-26.5s-12.4,27.3-26.7,60.9l-25.8,61.2,1.5,4.6c.8,2.5,11.9,31.9,24.7,65.5s23.7,62.5,24.3,64.3,1.5,3.1,1.9,3,.9-12.1.8-26.6l-.1-26.2h52.4c57.5,0,58.4-.1,69.9-6.2a43.78,43.78,0,0,0,10.5-8.2c2.9-3.3,21.5-34.6,51.3-86.1,25.7-44.6,48.5-83.9,50.7-87.5,6.6-10.8,8.6-17.2,8.7-27.5.2-16-.3-17-46.8-97.5-30.9-53.4-35-60.2-36.6-59.9C531.3,187.43,502.4,202.83,467.4,221.63Z"/><path class="cls-2" d="M10.1,209.33c-.6.8,0,1.2,28.2,17.4,9.4,5.4,17,10.1,16.9,10.4S43.7,257,30,280.73s-25.9,45.7-27.3,49c-3.6,8.7-3.6,22.4,0,31,1.4,3.3,23.2,42,48.5,86s48.1,83.6,50.5,87.9c5.6,10.2,13.8,18.4,22.1,22.5,11.9,5.9,14.5,6,98.6,6.1h76.2v-3c0-2.8,1.8-57.6,4-117.5.5-14.3.7-26.1.6-26.2s-39.1-.3-86.4-.3c-59.4,0-86.2-.3-86.2-1.1,0-.5,12.9-23.5,28.8-51,20.6-35.9,29.1-49.8,30.2-49.6.9.2,11.3,6,23.3,13s21.9,12.2,22.2,11.7-17.5-24.7-39.6-53.9c-27.1-35.9-40.7-53.2-42.2-53.6-1.2-.2-13.4-2.3-27.2-4.5-27.7-4.4-109.7-17.7-113.3-18.3C11.6,208.63,10.3,208.83,10.1,209.33Z"/></svg>