<?xml version="1.0" encoding="utf-8"?>
<!-- Generator: Adobe Illustrator 24.1.0, SVG Export Plug-In . SVG Version: 6.00 Build 0)  -->
<svg version="1.1" id="レイヤー_4" xmlns="http://www.w3.org/2000/svg" xmlns:xlink="http://www.w3.org/1999/xlink" x="0px"
	 y="0px" viewBox="0 0 451.6 447.7" style="enable-background:new 0 0 451.6 447.7;" xml:space="preserve">
<style type="text/css">
	.st0{clip-path:url(#SVGID_2_);}
	.st1{fill:#00AE78;}
	.st2{fill:none;stroke:#FFFFFF;stroke-width:20;}
</style>
<g>
	<defs>
		<rect id="SVGID_1_" x="-1.8" y="3" width="451.9" height="447.9"/>
	</defs>
	<clipPath id="SVGID_2_">
		<use xlink:href="#SVGID_1_"  style="overflow:visible;"/>
	</clipPath>
	<g class="st0">
		<path class="st1" d="M14.2,306V63.1c0-5.2,1-10.4,3-15.2c2-4.8,4.9-9.2,8.6-12.9c3.7-3.7,8.1-6.6,12.9-8.6c4.8-2,10-3,15.2-3
			h345.2c5.2,0,10.4,1,15.2,3c4.8,2,9.2,4.9,12.9,8.6c3.7,3.7,6.6,8.1,8.6,12.9c2,4.8,3,10,3,15.2V306c0,5.2-1,10.4-3,15.2
			c-2,4.8-4.9,9.2-8.6,12.9c-3.7,3.7-8.1,6.6-12.9,8.6c-4.8,2-10,3-15.2,3H96.1l-82,84.3V306z"/>
		<path class="st2" d="M101.4,140.1h255.4"/>
		<path class="st2" d="M101.4,239.8h255.4"/>
	</g>
</g>
</svg>
